<svg width="30" height="30" viewBox="0 0 30 30" fill="none" xmlns="http://www.w3.org/2000/svg">
<g clip-path="url(#clip0_713_799)">
<path fill-rule="evenodd" clip-rule="evenodd" d="M18.7218 20.6916C17.1342 21.8667 22.071 16.8183 20.6662 18.7373C20.7014 18.7345 20.6362 18.8409 20.4178 19.1077C20.4178 19.1077 24.1696 22.8342 26.0114 24.7308C26.6507 25.4222 25.4971 26.8022 24.7134 26.0817C23.0456 24.4636 19.0992 20.4422 19.0931 20.4356L18.7218 20.6916Z" fill="#00A962"/>
<path d="M13.2086 22.5759C15.6226 22.5525 18.0123 21.5527 19.7308 19.8544C21.7717 17.8373 22.8226 14.8533 22.4561 12.0042C21.828 7.12219 17.8145 3.80906 13.1486 3.80906C9.60342 3.80906 6.15811 6.02672 4.64686 9.24234C3.48998 11.7042 3.48764 14.6766 4.64686 17.1427C6.14732 20.3358 9.53639 22.5417 13.0881 22.5759C13.1284 22.5759 13.1687 22.5759 13.2086 22.5759ZM13.0979 21.0117C9.49279 20.977 6.12904 18.1889 5.46014 14.6142C4.98857 12.0942 5.87873 9.36703 7.73311 7.57734C9.89779 5.48719 13.3004 4.78734 16.1298 5.97188C18.6611 7.03172 20.5558 9.49266 20.905 12.2039C21.204 14.528 20.3701 16.9636 18.7314 18.6413C17.2937 20.1131 15.2776 20.9916 13.1987 21.0117C13.165 21.0117 13.1317 21.0117 13.0979 21.0117Z" fill="#00A962"/>
</g>
<defs>
<clipPath id="clip0_713_799">
<rect width="30" height="30" fill="white"/>
</clipPath>
</defs>
</svg>
