<svg width="30" height="30" viewBox="0 0 30 30" fill="none" xmlns="http://www.w3.org/2000/svg">
<path d="M3.75 13.75L23.2325 13.75L16.6163 7.13372C16.1281 6.64559 16.1281 5.85434 16.6163 5.36622C17.1044 4.87809 17.8959 4.87809 18.3841 5.36622L27.1341 14.1162C27.6222 14.6043 27.6222 15.3959 27.1341 15.8837L18.3841 24.6337C18.14 24.8778 17.82 25 17.5 25C17.1803 25 16.8603 24.8778 16.6163 24.6337C16.1281 24.1456 16.1281 23.354 16.6163 22.8662L23.2325 16.25L3.75 16.25C3.06 16.25 2.5 15.6903 2.5 15C2.5 14.3097 3.05969 13.75 3.75 13.75Z" fill="#16195E"/>
</svg>
