<svg width="30" height="30" viewBox="0 0 30 30" fill="none" xmlns="http://www.w3.org/2000/svg">
<path d="M26.25 13.75L6.7675 13.75L13.3837 7.13372C13.8719 6.64559 13.8719 5.85434 13.3837 5.36622C12.8956 4.87809 12.1041 4.87809 11.6159 5.36622L2.86594 14.1162C2.37781 14.6043 2.37781 15.3959 2.86594 15.8837L11.6159 24.6337C11.86 24.8778 12.18 25 12.5 25C12.8197 25 13.1397 24.8778 13.3837 24.6337C13.8719 24.1456 13.8719 23.354 13.3837 22.8662L6.7675 16.25L26.25 16.25C26.94 16.25 27.5 15.6903 27.5 15C27.5 14.3097 26.9403 13.75 26.25 13.75Z" fill="#16195E"/>
</svg>
